/* XPM */
static char *ce85e4662bbe4449ae82deab34e63410xhR7tBbgAcElkUsc[] = {
/* columns rows colors chars-per-pixel */
"42 74 211 2 ",
"   c #040202",
".  c #0C0201",
"X  c #0D0904",
"o  c #090809",
"O  c #130600",
"+  c #150C01",
"@  c #1D0C02",
"#  c #1C0805",
"$  c #1E1303",
"%  c #1D1A0E",
"&  c #1B120A",
"*  c #0F0F11",
"=  c #140F13",
"-  c #161515",
";  c #16151A",
":  c #1D1D1D",
">  c #191816",
",  c #240A00",
"<  c #231302",
"1  c #2E1403",
"2  c #271B0E",
"3  c #331B02",
"4  c #391E01",
"5  c #311A05",
"6  c #271713",
"7  c #351D12",
"8  c #282400",
"9  c #3C2300",
"0  c #36210E",
"q  c #373000",
"w  c #3B291B",
"e  c #342619",
"r  c #252525",
"t  c #2C2C2C",
"y  c #2A2627",
"u  c #382C28",
"i  c #3A3128",
"p  c #333333",
"a  c #452A0B",
"s  c #4D3004",
"d  c #563B0E",
"f  c #57381C",
"g  c #463324",
"h  c #46362A",
"j  c #573C29",
"k  c #473A36",
"l  c #454100",
"z  c #5A5506",
"x  c #5D4111",
"c  c #5D5615",
"v  c #6B5C17",
"b  c #776D18",
"n  c #494527",
"m  c #5D4426",
"M  c #5A502D",
"N  c #4C4236",
"B  c #574638",
"V  c #56473B",
"C  c #595635",
"Z  c #614B26",
"A  c #64562C",
"S  c #735929",
"D  c #644E3D",
"F  c #604635",
"G  c #6D5533",
"H  c #6A5239",
"J  c #665237",
"K  c #745A37",
"L  c #616020",
"P  c #786F22",
"I  c #7C6136",
"U  c #7C6238",
"Y  c #7C7234",
"T  c #4D4D4D",
"R  c #434445",
"E  c #594D42",
"W  c #544945",
"Q  c #5E5848",
"!  c #545454",
"~  c #5A5A5A",
"^  c #614F41",
"/  c #655246",
"(  c #625848",
")  c #725742",
"_  c #7A624A",
"`  c #796D53",
"'  c #696357",
"]  c #756D67",
"[  c #7F7164",
"{  c #777775",
"}  c #80790E",
"|  c #836839",
" . c #867C27",
".. c #84725A",
"X. c #83766D",
"o. c #8E8123",
"O. c #8D8530",
"+. c #9B9133",
"@. c #988936",
"#. c #AAA23D",
"$. c #AFB03B",
"%. c #B3B233",
"&. c #ACA425",
"*. c #DFDC3F",
"=. c #EDF226",
"-. c #FBFE31",
";. c #F6F336",
":. c #EDEF31",
">. c #94834F",
",. c #AFA649",
"<. c #B0A843",
"1. c #BCB34C",
"2. c #B9B750",
"3. c #B2AA59",
"4. c #9B8D60",
"5. c #998465",
"6. c #8B877C",
"7. c #938A78",
"8. c #9D9477",
"9. c #A38C62",
"0. c #A89E69",
"q. c #B39D66",
"w. c #A49A78",
"e. c #C3C04F",
"r. c #DCD946",
"t. c #D4CB54",
"y. c #DCD257",
"u. c #D2C749",
"i. c #F7EF4C",
"p. c #FDFB44",
"a. c #FEFC4C",
"s. c #F5F345",
"d. c #F4EB56",
"f. c #FFF758",
"g. c #FFFF5F",
"h. c #FAF755",
"j. c #E6DF6B",
"k. c #E6D97D",
"l. c #ECE967",
"z. c #F4EA66",
"x. c #F4EB6C",
"c. c #FEF567",
"v. c #FAF674",
"b. c #888785",
"n. c #96958F",
"m. c #938991",
"M. c #A29D8C",
"N. c #A8988D",
"B. c #A5A39D",
"V. c #AEA69B",
"C. c #B5AD9A",
"Z. c #ADA8A2",
"A. c #BBB9B6",
"S. c #C0B39E",
"D. c #C4B6A9",
"F. c #E4CF90",
"G. c #F2E682",
"H. c #FFFD9B",
"J. c #CCC1AF",
"K. c #CDC2BE",
"L. c #DBCBB6",
"P. c #E3CCAC",
"I. c #E8D6AE",
"U. c #F3DDA3",
"Y. c #E1CCB1",
"T. c none",
"R. c none",
"E. c none",
"W. c none",
"Q. c none",
"!. c none",
"~. c none",
"^. c none",
"/. c none",
"(. c none",
"). c none",
"_. c none",
"`. c none",
"'. c none",
"]. c none",
"[. c none",
"{. c none",
"}. c none",
"|. c none",
" X c none",
".X c none",
"XX c none",
"oX c none",
"OX c none",
"+X c none",
"@X c none",
"#X c none",
"$X c none",
"%X c none",
"&X c none",
"*X c none",
"=X c none",
"-X c none",
";X c none",
":X c none",
">X c none",
",X c none",
"<X c none",
"1X c none",
"2X c none",
"3X c none",
"4X c none",
"5X c none",
"6X c none",
"7X c none",
"8X c none",
/* pixels */
"4X4X4X4X4X4X4X4X4X4X4X4X4X4X4X4X4X8X4X8X4X4X8X8X4X4X].4X4X8X4X4X4X4X4X4X4X4X4X4X4X4X",
"4X4X4X4X4X4X4X4X4X4X4X4X4X4X4X4X4X8X].4X+X+X8X4X+X8X4X8X4X4X4X8X4X4X4X4X4X4X4X4X4X4X",
"4X4X4X4X4X4X4X4X4X4X4X4X4X4X4X4X! r > r p > t > > { ].4X4X4X;X4X4X4X4X4X4X4X4X4X4X4X",
"4X4X4X4X4X4X4X4X4X4X4X4X4X4X4X4XW.b.> r r p : - { A.4X4X+X8X4X4X4X4X4X4X4X4X4X4X4X4X",
"4X4X4X4X4X4X4X4X4X4X4X4X4X4X4X4X+XE.R : y t p R E.].8X4X4X4X4X].4X4X4X4X4X4X4X4X4X4X",
"4X4X4X4X4X4X4X4X4X4X4X4X4X4X4X4X4X4X4Xr o   r `.8X4X8X4X8X8X4X4X4X4X4X4X4X4X4X4X4X4X",
"4X4X4X4X4X4X4X4X4X4X4X4X4X4X4X4X4X+X4X+XT ! 8X4X4X4X8X4X4X4X4X4X4X4X4X4X4X4X4X4X4X4X",
"4X4X4X4X4X4X4X4X4X4X4X4X4X4X4X4X8X4X+X4X~ ! 4X4X4X8X4X8X4X4X8X4X4X4X4X4X4X4X4X4X4X4X",
"4X4X4X4X4X4X4X4X4X4X4X4X4X4X4X4X4X4X4X4X! ~ 4X4X4X4X4X4X4X4X4X4X4X4X4X4X4X4X4X4X4X4X",
"4X4X4X4X4X4X4X4X4X4X4X4X4X4X4X4X4X4X4X4XT ~ 4X4X4X4X4X4X4X4X4X4X4X4X4X4X4X4X4X4X4X4X",
"4X4X4X4X4X4X4X4X4X4X4X4X4X4X4X4X4X4X4X4XT ~ 4X4X4X4X4X4X4X4X4X4X4X4X4X4X4X4X4X4X4X4X",
"4X4X4X4X4X4X4X4X4X4X4X4X4X4X4X4X4X4X4X4XT ~ 4X4X4X4X4X4X4X4X4X4X4X4X4X4X4X4X4X4X4X4X",
"4X4X4X4X4X4X4X4X4X4X4X4X4X4X4X4X4X4X4X4XT ~ 4X4X4X4X4X4X4X4X4X4X4X4X4X4X4X4X4X4X4X4X",
"4X4X4X4X4X4X4X4X4X4X4X4X4X4X4X4X4X4X4X4XT ~ 4X4X4X4X4X4X4X4X4X4X4X4X4X4X4X4X4X4X4X4X",
"4X4X4X4X4X4X4X4X4X4X4X4X4X4X4X4X4X4X4X4XT ! 4X4X4X4X4X4X4X4X4X4X4X4X4X4X4X4X4X4X4X4X",
"4X4X4X4X4X4X4X4X4X4X4X4X4X4X4X4X4X4X4X4XT ! 4X4X4X4X4X4X4X4X4X4X4X4X4X4X4X4X4X4X4X4X",
"4X4X4X4X4X4X4X;X;X4X4X;X-X-X4X-X$X;X;X$X~ ! 8X4X4X+X4X;X;X;X$X$X4X4X4X4X4X4X4X4X4X4X",
"4X4X4X4X4X4X;X;X;X;X;X-X-X-X-X-X$X;X;X$X~ ~ 4X4X4X8X;X*X;X;X4X4X4X4X4X4X4X4X4X4X4X4X",
"4X4X4X4X4X4X4X4X4X;X8X4X4X4X4X4X4X;X8Xy r * R `.4X4X4X*X4X4X4X4X4X4X4X4X4X4X4X4X4X4X",
"4X4X4X4X4X4X4X4X;X*X4X4X4X4X4X4X8X4X8Xo : ; ; 8X*X4X4X4X4X4X4X8X4X4X4X4X4X4X4X4X4X4X",
"4X4X4X4X4X4X4X4X4X4X4X4X&X8X*X4X&XOX&X= y t   (.+X$X$X$X$X$X$X-X4X4X4X4X4X4X4X4X4X4X",
"4X4X4X4X4X4X4X4X4X4X4X&X*X&X4X4X&X%X%X. u t X ;X@X;X$X;X#X$X$X$X4X4X4X4X4X4X4X4X4X4X",
"4X4X4X4X4X4X4X4X4X4X&X&X4X4X%X{.%X~.k . + % . h Q.@X].4X4X;X;X4X4X4X4X4X4X4X4X4X4X4X",
"4X4X4X4X4X4X4X4X4X4X&X&X4X*X).W.D.N.w e w 2 w e X.K.W.{.4X4X4X4X4X4X4X4X4X4X4X4X4X4X",
";X;X4X4X4X4X4X4X4X8X4X*X@X$X}.@ # 3 G A Z G m J 5 < O /.4X%X&X&X4X8X4X4X4X8X4X4X4X4X",
";X;X4X4X4X4X4X4X*X4X@X@XW & 6 ^ H G K U | S U K H D / 6 6 k %X@X4X4X8X4X4X4X4X4X4X4X",
"4X;X4X4X4X4X4X4X+X*X X] E i V / ) K K K I S | I K _ D g k k h $X@X4X8X4X4X4X4X4X4X4X",
"4X;X4X4X4X4X4X4X4X(.Z.i E B B g j f j f s x d d a j F g B ( $ V.E.4X4X4X4X4X4X4X4X4X",
"4X4X4X4X4X4X4X4X;X6.+ N E g < 0 7 1 # a 1 9 4 , 4 1 , 7 V E V & n.8X4X4X8X4X4X4X4X4X",
"4X4X4X4X4X4X4X4X;XB.. . @ ..T.T.Y.5.9 q.U.F.q.3 9.P.^.L.[ O +   { 8X4X4X8X4X4X4X4X4X",
"4X4X4X4X4X4X4X4X#Xn.w N.w.D.^.I.Y P  .k.H.G.k.@.v >.R.T.S.M.7.% b.4X8X4X4X4X8X4X4X4X",
"4X4X4X4X4X4X4X4X;XA.' 7.7.S.L.4.b } j.l.v.v.x.t.o.v 4.^.C.6.M.Q B.4X+X4X4X4X8X4X4X4X",
"4X4X4X4X4X4X4X4X4X+X'.% 2 ] D.+ +.u.z.c.c.g.i.d.y.+.< J.] - > '.4X4X4X4X4X4X4X4X4X4X",
"4X4X4X4X4X4X4X4X4X4X+X|. XB.X + 1.c.d.f.s.;.p.a.z.,.$ + m.&X*X-X4X4X4X4X4X4X4X4X4X4X",
"4X4X4X4X4X4X4X4X4X@X+X$X;X{.n.8 #.r.h.p.=.-.;.h.t.3.O V.[.].#X$X4X4X4X4X4X4X4X4X4X4X",
"4X4X4X4X4X4X4X4X8X4X4X$X;X$X|.M O.&.*.a.-.=.p.r.<.Y ` /.*X4X$X$X;X4X4X4X4X4X4X4X4X4X",
"4X4X4X4X4X4X4X4X4X4XOX@X;X$X$X.Xc z %.h.:.s.r.e.c M XX4X*X;X|.#X4X4X4X4X4X4X4X4X4X4X",
"4X4X4X4X4X4X4X4X8X4X4X8X4X4X;X$X_.0.l $.l.v.2.q w.XX*X*X+X;X;X-X4X4X4X4X4X4X4X4X4X4X",
"4X4X4X4X4X4X4X4X8X4X8X].4X+X4X;X X!.w.L z c A 8./.%XOX@X4X8X4X*X4X4X4X4X4X4X4X4X4X4X",
"4X4X4X4X4X4X4X4X4XoX4X4X8X4X*X&X%X&X.Xn C n ( }.@X&X%X*X4X4X4X*X4X4X4X4X4X4X4X4X4X4X",
"4X4X4X4X4X4X4X4X4X4X4X4X4X4X4X4X4X4X$X$X$X$X$X*X&X4X*X;X;X4X4X4X4X4X4X4X4X4X4X4X4X4X",
"4X4X4X4X4X4X4X4X4X4X4X4X4X4X4X4X;X;X;X;X;X;X4X4X4X4X;X;X;X;X4X4X4X4X4X4X4X4X4X4X4X4X",
"4X4X4X4X4X4X4X4X4X4X4X4X4X4X4X;X$X$X$X;X;X;X;X;X;X;X;X;X;X;X$X$X4X4X4X4X4X4X4X4X4X4X",
"4X4X4X4X4X4X4X4X4X4X4X4X4X4X4X;X$X$X;X;X;X;X$X$X$X;X4X4X4X;X$X$X;X4X4X4X4X4X4X4X4X4X",
"4X4X4X4X4X4X4X4X4X4X4X4X4X4X4X4X;X;X4X4X4X;X;X;X;X4X4X4X4X4X;X;X4X4X4X4X4X4X4X4X4X4X",
"4X4X4X4X4X4X4X4X4X4X4X4X4X4X4X4X;X;X4X4X4X4X4X;X4X4X4X4X4X4X4X;X4X4X4X4X4X4X4X4X4X4X",
"4X4X4X4X4X4X4X4X4X4X4X4X4X4X4X4X;X;X4X4X4X4X4X4X4X4X4X4X4X4X4X4X4X4X4X4X4X4X4X4X4X4X",
"4X4X4X4X4X4X4X4X4X4X4X4X4X4X4X4X;X;X4X4X4X4X4X4X4X;X4X4X4X4X4X4X4X4X4X4X4X4X4X4X4X4X",
"4X4X4X4X4X4X4X4X4X4X4X4X4X4X4X4X4X4X4X4X4X4X4X4X4X4X4X4X4X4X4X4X4X4X4X4X4X4X4X4X4X4X",
"4X4X4X4X4X4X4X4X4X4X4X4X4X4X4X4X4X4X4X4X4X4X4X4X4X4X4X4X4X4X4X4X4X4X4X4X4X4X4X4X4X4X",
"4X4X4X4X4X4X4X4X4X4X4X4X4X4X4X4X4X4X4X4X4X4X4X4X4X4X4X4X4X4X4X4X4X4X4X4X4X4X4X4X4X4X",
"4X4X4X4X4X4X4X4X4X4X4X4X4X4X4X4X4X4X4X4X4X4X4X4X4X4X4X4X4X4X4X4X4X4X4X4X4X4X4X4X4X4X",
"4X4X4X4X4X4X4X4X4X4X4X4X4X4X4X4X4X4X4X4X4X4X4X4X4X4X4X4X4X4X4X4X4X4X4X4X4X4X4X4X4X4X",
"4X4X4X4X4X4X4X4X4X4X4X4X4X4X4X4X4X4X4X4X4X4X4X4X4X4X4X4X4X4X4X4X4X4X4X4X4X4X4X4X4X4X",
"4X4X4X4X4X4X4X4X4X4X4X4X4X4X4X4X4X4X4X4X4X4X4X4X4X4X4X4X4X4X4X4X4X4X4X4X4X4X4X4X4X4X",
"4X4X4X4X4X4X4X4X4X4X4X4X4X4X4X4X4X4X4X4X4X4X4X4X4X4X4X4X4X4X4X4X4X4X4X4X4X4X4X4X4X4X",
"4X4X4X4X4X4X4X4X4X4X4X4X4X4X4X4X4X4X4X4X4X4X4X4X4X4X4X4X4X4X4X4X4X4X4X4X4X4X4X4X4X4X",
"4X4X4X4X4X4X4X4X4X4X4X4X4X4X4X4X4X4X4X4X4X4X4X4X4X4X4X4X4X4X4X4X4X4X4X4X4X4X4X4X4X4X",
"4X4X4X4X4X4X4X4X4X4X4X4X4X4X4X4X4X4X4X4X4X4X4X4X4X4X4X4X4X4X4X4X4X4X4X4X4X4X4X4X4X4X",
"4X4X4X4X4X4X4X4X4X4X4X4X4X4X4X4X4X4X4X4X4X4X4X4X4X4X4X4X4X4X4X4X4X4X4X4X4X4X4X4X4X4X",
"4X4X4X4X4X4X4X4X4X4X4X4X4X4X4X4X4X4X4X4X4X4X4X4X4X4X4X4X4X4X4X4X4X4X4X4X4X4X4X4X4X4X",
"4X4X4X4X4X4X4X4X4X4X4X4X4X4X4X4X4X4X4X4X4X4X4X4X4X4X4X4X4X4X4X4X4X4X4X4X4X4X4X4X4X4X",
"4X4X4X4X4X4X4X4X4X4X4X4X4X4X4X4X4X4X4X4X4X4X4X4X4X4X4X4X4X4X4X4X4X4X4X4X4X4X4X4X4X4X",
"4X4X4X4X4X4X4X4X4X4X4X4X4X4X4X4X4X4X4X4X4X4X4X4X4X4X4X4X4X4X4X4X4X4X4X4X4X4X4X4X4X4X",
"4X4X4X4X4X4X4X4X4X4X4X4X4X4X4X4X4X4X4X4X4X4X4X4X4X4X4X4X4X4X4X4X4X4X4X4X4X4X4X4X4X4X",
"4X4X4X4X4X4X4X4X4X4X4X4X4X4X4X4X4X4X4X4X4X4X4X4X4X4X4X4X4X4X4X4X4X4X4X4X4X4X4X4X4X4X",
"4X4X4X4X4X4X4X4X4X4X4X4X4X4X4X4X4X4X4X4X4X4X4X4X4X4X4X4X4X4X4X4X4X4X4X4X4X4X4X4X4X4X",
"4X4X4X4X4X4X4X4X4X4X4X4X4X4X4X4X4X4X4X4X4X4X4X4X4X4X4X4X4X4X4X4X4X4X4X4X4X4X4X4X4X4X",
"4X4X4X4X4X4X4X4X4X4X4X4X4X4X4X4X4X4X4X4X4X4X4X4X4X4X4X4X4X4X4X4X4X4X4X4X4X4X4X4X4X4X",
"4X4X4X4X4X4X4X4X4X4X4X4X4X4X4X4X4X4X4X4X4X4X4X4X4X4X4X4X4X4X4X4X4X4X4X4X4X4X4X4X4X4X",
"4X4X4X4X4X4X4X4X4X4X4X4X4X4X4X4X4X4X4X4X4X4X4X4X4X4X4X4X4X4X4X4X4X4X4X4X4X4X4X4X4X4X",
"4X4X4X4X4X4X4X4X4X4X4X4X4X4X4X4X4X4X4X4X4X4X4X4X4X4X4X4X4X4X4X4X4X4X4X4X4X4X4X4X4X4X",
"4X4X4X4X4X4X4X4X4X4X4X4X4X4X4X4X4X4X4X4X4X4X4X4X4X4X4X4X4X4X4X4X4X4X4X4X4X4X4X4X4X4X",
"4X4X4X4X4X4X4X4X4X4X4X4X4X4X4X4X4X4X4X4X4X4X4X4X4X4X4X4X4X4X4X4X4X4X4X4X4X4X4X4X4X4X"
};
